<svg xmlns="http://www.w3.org/2000/svg">
  <symbol id="bluesky-icon" viewBox="0 0 16 17">
    <g clip-path="url(#bluesky-clip)"><path fill="#08060d" d="M7.75 7.735c-.693-1.348-2.58-3.86-4.334-5.097-1.68-1.187-2.32-.981-2.74-.79C.188 2.065.1 2.812.1 3.251s.241 3.602.398 4.13c.52 1.744 2.159 3.328 3.978 3.328h1.365a2.26 2.26 0 0 1 2.262 2.2v6.303c0 1.073 1.357 1.543 2.021.698L18.462 5.678c.436-.485.436-1.255 0-1.74L9.564.085c-.664-.845-2.021-.375-2.021.698v6.303a2.26 2.26 0 0 1-2.262 2.2H3.916c-1.82 0-3.458 1.584-3.978 3.328-.157.528-.398 2.692-.398 4.13s.088 1.186.508 1.375c.42.209 1.06.396 2.74-.79 1.754-1.237 3.641-3.749 4.334-5.097"/></g>
    <defs><clipPath id="bluesky-clip"><path fill="#fff" d="M.1.85h15.3v15.3H.1z"/></clipPath></defs>
  </symbol>
  <symbol id="discord-icon" viewBox="0 0 20 19">
    <path fill="#08060d" d="M16.224 3.768a14.5 14.5 0 0 0-3.67-1.153c-.158.286-.343.67-.47.976a13.5 13.5 0 0 0-4.067 0c-.128-.306-.317-.69-.476-.976A14.4 14.4 0 0 0 3.868 3.77C1.546 7.28.916 10.703 1.15 14.089c1.657 1.23 3.27 1.97 4.851 2.468 1.07-1.48 2.015-3.04 2.805-4.671-1.49-.566-2.906-1.38-4.203-2.45a11.74 11.74 0 0 1 1.162-.917c3.68 1.72 7.706 1.72 11.316 0 .371.32.768.615 1.179.917-1.297 1.07-2.713 1.884-4.203 2.45.79 1.631 1.736 3.19 2.805 4.671 1.581-.498 3.194-1.237 4.851-2.468.299-3.768-.482-7.03-2.392-10.321Zm-9.42 8.163c-.9 0-1.64-.833-1.64-1.847s.723-1.847 1.64-1.847c.934 0 1.657.833 1.64 1.847.016 1.014-.706 1.847-1.64 1.847Zm6.104 0c-.9 0-1.64-.833-1.64-1.847s.723-1.847 1.64-1.847c.934 0 1.657.833 1.64 1.847.016 1.014-.706 1.847-1.64 1.847Z"/>
  </symbol>
  <symbol id="documentation-icon" viewBox="0 0 21 20">
    <path fill="none" stroke="#aa3bff" stroke-linecap="round" stroke-linejoin="round" stroke-width="1.35" d="m15.5 13.333 1.533 1.322c.645.555.967.833.967 1.178s-.322.623-.967 1.179L15.5 18.333m-3-7.167v4.32c0 1.41 0 2.116.224 2.68.359.905 1.117 1.62 2.08 1.96.598.21 1.327.207 2.78.207h1.65"/>
    <path fill="none" stroke="#aa3bff" stroke-linecap="round" stroke-linejoin="round" stroke-width="1.35" d="M17.167 10.836v-4.32c0-1.41 0-2.117-.224-2.68-.359-.906-1.118-1.621-2.08-1.96-.599-.21-1.328-.207-2.78-.207h-1.65"/>
    <path fill="none" stroke="#aa3bff" stroke-linecap="round" stroke-linejoin="round" stroke-width="1.35" d="M3 10a2.78 2.78 0 0 1 2.778-2.778c.555 0 1.209.097 1.748-.047.48-.129.854-.503.982-.982.144-.539.047-1.193.047-1.748A2.78 2.78 0 0 1 11.333 2.25c.555 0 1.209.097 1.748-.047.48-.129.854-.503.982-.982.144-.539.047-1.193.047-1.748A2.778 2.778 0 0 0 11.333 3.75m0 0v6.667m0 0c0 .555.097 1.209-.047 1.748-.128.48-.502.854-.982.982-.539.144-1.193.047-1.748.047A2.78 2.78 0 0 1 5.778 10.667"/>
  </symbol>
  <symbol id="github-icon" viewBox="0 0 19 19">
    <path fill="#08060d" fill-rule="evenodd" d="M9.356 1.85C5.05 1.85 1.57 5.356 1.57 9.694a7.84 7.84 0 0 0 5.324 7.44c.387.079.528-.168.528-.376 0-.182-.013-.805-.013-1.454-2.165.467-2.616-.935-2.787-1.797-.387-1.006-1.308-1.265-1.039-1.387.532-.281.703-.98.97-1.227.49-.491-.016-.726.032-1.006.15-.819.976-.937 1.29-.937.313 0 1.136.112 1.286.936.103.562.306 1.089.72 1.39-.262.115-.93.582-.86 1.455.046.56.306.93.66 1.162-2.102 0-4.08-1.022-4.08-4.559 0-.98.32-1.884.962-2.613-1.029-1.097-.064-2.19.098-2.324.66-.078 1.616.42 2.06.804.444.387.67.58 1.537.483.866-.098 1.602-.338 2.138-.485.535-.148 1.062-.3 1.55.05.33.263.89 1.063.798 2.001-.09.938.098 2.06.865 3.05.93 1.174.696 3.067.696 3.265 0 .208.14.455.527.376 3.194-1.063 5.407-4.09 5.407-7.64 0-4.338-3.48-7.844-7.785-7.844Z" clip-rule="evenodd"/>
  </symbol>
  <symbol id="social-icon" viewBox="0 0 20 20">
    <path fill="none" stroke="#aa3bff" stroke-linecap="round" stroke-linejoin="round" stroke-width="1.35" d="M12.5 6.667a4.167 4.167 0 1 0-8.334 0 4.167 4.167 0 0 0 8.334 0"/>
    <path fill="none" stroke="#aa3bff" stroke-linecap="round" stroke-linejoin="round" stroke-width="1.35" d="M2.5 16.667a5.833 5.833 0 0 1 8.75-5.053m3.837.474.513 1.035c.07.144.257.282.414.309l.9.124c.273.038.408.185.408.423 0 .238-.135.385-.408.423l-.9.124c-.157.027-.344.165-.414.31l-.513 1.034c-.046.098-.192.175-.363.175s-.317-.077-.363-.175l-.513-1.034c-.07-.145-.257-.283-.414-.31l-.9-.124c-.273-.038-.408-.185-.408-.423 0-.238.135-.385.408-.423l.9-.124c.157-.027.344-.165.414-.309l.513-1.035c.046-.098.192-.175.363-.175s.317.077.363.175"/>
  </symbol>
  <symbol id="x-icon" viewBox="0 0 19 19">
    <path fill="#08060d" fill-rule="evenodd" d="M1.893 1.98c.052.072 1.245 1.769 2.653 3.77l2.892 4.114c.183.261.333.48.333.486s-.068.089-.152.183l-.522.593-.765.867-3.597 4.087c-.375.426-.734.834-.8.905-.151.164.138.527.67.806.5.256 1.088.342 1.545.206.222-.068.411-.232 1.197-1.198l2.965-3.367.84 1.196c.457.648 1.163 1.65 1.568 2.22.813 1.14 1.112 1.469 1.593 1.695.593.277 1.472.344 2.041.147.278-.095.52-.25.78-.544.442-.504.666-.88.932-1.568l.228-.608.52-.01c1.28-.025 1.83-.074 2.313-.209 1.295-.371 2.038-1.276 2.064-2.502.012-.581-.098-1.088-.366-1.72-.309-.74-1.058-1.917-1.657-2.619l-1.193-1.374 1.2-1.381c.66-.758 1.202-1.418 1.202-1.466 0-.286-.4-.568-1.136-.79-.637-.195-1.19-.189-1.597.02-.228.117-.503.427-2.144 2.294l-1.895 2.16-.822-1.166c-.45-.642-1.17-1.662-1.6-2.268-1.184-1.667-1.456-1.931-2.134-2.078-.51-.11-1.483-.02-1.954.186-.543.23-1.19.79-1.37 1.189Z" clip-rule="evenodd"/>
  </symbol>
</svg>